<svg width="274" height="267" viewBox="0 0 274 267" fill="none" xmlns="http://www.w3.org/2000/svg">
<g clip-path="url(#clip0)">
<path d="M4.11615 70.8663C5.86456 66.6253 8.21917 62.6586 11.1069 59.0893C17.581 51.0157 25.2322 43.9542 33.8056 38.1401C35.4483 37.0238 36.2323 38.1401 36.139 41.4053C36.0456 44.3728 35.943 48.8473 35.7656 54.6614C35.5883 60.4754 35.467 64.8941 35.383 67.7686C35.299 70.643 34.4496 72.364 32.8816 73.1175C31.015 74.0477 28.2616 75.6385 24.6029 77.8804C23.5373 78.662 22.5383 79.53 21.6162 80.4758C19.8113 82.2931 18.448 84.4984 17.6309 86.9224C16.9166 89.5916 16.7735 92.3807 17.2109 95.1086C17.6496 98.5691 19.0122 100.048 21.1776 99.6017C25.4709 98.6714 30.1189 97.7412 34.3843 97.1551C35.663 96.9784 36.4376 97.9924 36.587 99.9459C37.1657 108.058 37.7257 114.467 37.987 118.83C38.1083 121.007 37.987 122.551 37.5203 123.37C37.263 123.818 36.8944 124.193 36.4498 124.458C36.0053 124.724 35.4997 124.871 34.9816 124.886C26.7424 125.784 18.4073 125.137 10.4069 122.979C8.85751 122.514 7.60684 122.104 6.7575 121.751C5.70314 121.251 4.75313 120.556 3.95749 119.704C2.91381 118.649 2.17816 117.331 1.82948 115.89C1.27447 113.446 0.961856 110.953 0.896139 108.448C0.812138 106.588 0.830805 102.597 0.961472 96.3551C1.09214 90.1131 1.23214 85.8433 1.40014 83.4991C1.66165 79.1758 2.57733 74.9168 4.11615 70.8663V70.8663Z" fill="#F18323"/>
<path d="M47.3387 121.407C46.4792 120.525 45.7643 119.514 45.22 118.411C44.5634 117.159 44.1068 115.813 43.8666 114.42C40.3534 92.906 40.1835 70.9808 43.3626 49.4147C44.2797 42.9362 46.7585 36.7758 50.5867 31.4609C55.5372 24.7128 61.7919 19.0196 68.9828 14.7164C72.1753 12.8714 75.5083 11.2789 78.9508 9.95357C83.2908 8.24191 86.2402 7.21864 87.7335 6.65118C90.7669 5.51628 93.2589 6.79072 95.2002 10.4466C97.1416 14.1025 98.4016 19.0235 98.9896 25.0701C99.8482 33.8144 100.324 42.2704 100.455 50.1868C100.688 65.1359 100.791 80.2059 100.455 95.2016C100.445 101.691 99.2629 108.126 96.9642 114.197C94.8175 119.435 92.1389 122.514 89.0122 123.323C85.4188 124.253 79.0535 124.858 70.1588 125.267C61.2641 125.677 55.9627 125.63 54.292 125.267C51.6611 124.645 49.2544 123.309 47.3387 121.407V121.407ZM76.6735 84.513C80.5748 83.2386 82.7962 79.2385 83.0388 72.6988C83.3655 64.1499 82.9362 55.3218 82.5255 46.6519C82.3202 42.3541 80.8922 40.1401 78.6428 40.4936C75.0088 40.9269 71.4399 41.792 68.0121 43.0704C62.8507 45.3216 59.2947 50.2333 57.4 56.9497C55.2347 64.6615 55.0387 72.8756 56.84 82.2432C57.0226 83.2699 57.4341 84.2426 58.044 85.0898C58.4563 85.7988 59.0838 86.359 59.8361 86.6898C61.9833 87.4371 64.2577 87.7532 66.5281 87.62C70.0618 87.1634 73.4922 86.1128 76.6735 84.513V84.513Z" fill="#F18323"/>
<path d="M109.994 120.365C109.124 119.193 108.43 117.902 107.931 116.532C107.268 114.879 106.822 113.146 106.606 111.379C103.339 84.0758 102.63 56.894 107.269 29.6842C108.566 21.6748 111.245 15.4514 115.323 11.256C120.646 5.79045 127.546 2.11584 135.063 0.744164C138.509 0.158525 142.004 -0.0907215 145.498 -3.53601e-05C149.987 -3.53601e-05 153.011 0.223224 154.561 0.269737C157.669 0.362762 160.161 2.71629 161.906 7.19079C163.854 12.3921 164.966 17.8674 165.201 23.4143C165.723 31.954 165.938 40.6332 165.761 49.1822C165.434 64.3267 165.014 79.5455 164.109 94.6993C163.855 101.275 162.443 107.755 159.937 113.844C157.603 119.146 154.813 122.356 151.658 123.146C148.037 124.077 141.643 124.737 132.73 125.193C123.817 125.649 118.525 125.602 116.863 125.193C114.539 124.653 112.197 123.025 109.994 120.365ZM140.626 80.2618C144.611 79.499 146.954 75.6106 147.458 68.6058C148.13 59.3963 147.962 49.9357 147.85 40.6983C147.785 36.0471 146.441 33.2564 144.117 32.875C140.511 32.1635 136.83 31.9042 133.159 32.1028C127.821 32.7726 123.975 37.1169 121.801 44.3356C118.879 54.0288 119.682 64.029 120.531 73.9826C120.697 75.2452 121.089 76.4677 121.689 77.592C122.069 78.4831 122.686 79.2547 123.471 79.8246C125.058 80.6804 127.821 81.9921 130.247 82.0572C133.787 82.0893 137.304 81.4809 140.626 80.2618Z" fill="#F18323"/>
<path d="M191.764 120.216C190.753 117.602 189.878 114.938 189.141 112.234C188.086 108.597 187.405 106.262 187.106 105.286L187.031 105.118C186.639 104.03 186.098 103.704 185.501 104.188C184.903 104.672 184.521 105.555 184.437 106.979V107.137C184.362 108.318 184.334 110.095 184.371 112.448C184.409 114.802 184.418 116.597 184.371 117.76C184.414 119.484 184.119 121.2 183.503 122.811C183.295 123.245 182.949 123.598 182.519 123.816C182.088 124.033 181.597 124.102 181.123 124.011C177.073 124.188 175.047 124.281 171.006 124.477C169.139 124.477 168.206 122.235 168.206 117.807C168.327 105.081 168.439 92.3085 168.523 79.5641C168.607 66.8197 168.607 53.8428 168.757 41.0983C168.757 38.1122 168.878 34.9029 168.962 31.5075C169.046 28.1121 169.149 24.3539 169.27 20.1957C169.391 16.0374 169.457 12.8281 169.513 10.6234C169.606 6.21401 170.791 4.16747 172.975 4.63259C174.114 4.88376 175.775 5.14423 178.099 5.48842C180.423 5.83261 182.085 6.13029 183.214 6.34425C183.811 6.44265 184.372 6.69306 184.843 7.07119C185.314 7.44932 185.679 7.94234 185.902 8.50243C186.551 10.4483 186.867 12.4893 186.835 14.5397C186.891 16.4002 186.919 18.3631 186.938 20.4747C186.957 22.5864 186.938 24.9306 186.938 27.5167C186.938 30.1028 186.938 32.168 186.938 33.5075C186.938 35.8238 186.873 37.6378 186.938 38.8378C187.246 43.9635 188.282 44.9682 190.065 41.9821C194.078 35.2657 197.485 29.7028 200.257 25.0702C202.124 21.9724 204.242 21.1538 206.585 22.5399C208.119 23.3607 209.733 24.0245 211.401 24.5213C212.821 24.9405 214.212 25.4532 215.564 26.0562C216.238 26.372 216.839 26.8247 217.327 27.3854C217.816 27.9461 218.182 28.6023 218.401 29.3121C218.69 30.4191 218.401 32.0563 217.468 34.2796C214.027 44.7108 210.626 55.1544 207.266 65.6104C206.949 66.6337 205.596 70.5407 203.225 77.6199C201.851 81.7865 201.679 86.2542 202.73 90.5132C204.989 99.8808 207.238 109.258 209.394 118.653C209.869 120.377 209.97 122.181 209.693 123.946C209.534 124.439 208.76 124.877 207.397 125.407C205.707 125.575 204.007 125.625 202.31 125.556C200.023 125.626 197.734 125.47 195.478 125.091C194.05 124.774 192.8 123.165 191.764 120.216Z" fill="#F18323"/>
<path d="M226.708 125.025C222.844 125.742 220.352 125.425 219.39 123.742C218.429 122.058 218.037 117.323 218.298 109.639C218.756 96.1132 219.418 82.5223 220.594 69.0058C220.921 65.229 221.528 62.8475 222.461 61.8987C223.394 60.9498 224.86 60.7731 226.997 61.4149L228.724 62.0847C231.309 63.015 232.896 64.3359 233.484 65.9453C234.072 67.5546 234.212 70.8198 233.876 75.7594C232.942 89.2015 232.354 102.737 231.72 116.207C231.468 121.574 229.713 124.458 226.708 125.025ZM226.969 57.1172C226.519 56.896 226.082 56.6475 225.662 56.373L224.561 55.6474C223.112 54.3161 222.07 52.6038 221.556 50.7078C220.84 48.4553 220.568 46.0864 220.753 43.7309C220.8 41.4622 221.368 39.2345 222.414 37.2192C223.348 35.7587 224.468 35.3587 225.793 35.9447C228.241 37.2586 230.519 38.8642 232.578 40.7262C233.93 41.8641 234.994 43.3036 235.683 44.928C236.372 46.5524 236.668 48.3158 236.545 50.0752C236.536 52.157 236.041 54.208 235.098 56.066C234.221 57.7033 233.201 58.5746 232.037 58.68C231.298 58.5907 230.565 58.454 229.844 58.2707C228.91 58.0381 228.35 57.9079 228.21 57.8521C227.814 57.5676 227.4 57.3096 226.969 57.08V57.1172Z" fill="#F18323"/>
<path d="M241.613 45.1356C242.444 44.6519 244.077 45.3682 246.495 47.3589C252.179 51.8906 257.558 56.7912 262.595 62.0289C264.238 63.6243 265.607 65.4786 266.645 67.5174C267.434 69.3721 267.874 71.3555 267.943 73.3687V74.7733C267.943 75.7873 267.989 76.6338 267.943 77.2292C267.896 77.8246 267.943 78.5036 267.887 79.1734C267.864 79.6688 267.814 80.1626 267.737 80.6525C267.679 80.9835 267.555 81.2996 267.373 81.5828C267.269 81.8416 267.071 82.0526 266.82 82.1746C266.568 82.2966 266.279 82.3211 266.011 82.2433C265.639 82.209 265.276 82.1114 264.937 81.9549L263.481 81.2665C262.856 80.9781 262.24 80.6618 261.615 80.3362C260.989 80.0107 260.243 79.5176 259.281 78.9781C258.455 78.472 257.58 78.0512 256.668 77.7222C253.765 77.1083 253.075 79.2292 254.671 83.5084C254.846 84.1011 255.166 84.6411 255.602 85.0796C256.039 85.5181 256.579 85.8413 257.172 86.0201C258.501 86.5404 259.611 87.4991 260.317 88.7364C262.352 93.462 261.979 96.4109 259.039 98.69C258.279 99.0337 257.444 99.1808 256.612 99.118C255.921 99.0965 255.234 99.0124 254.559 98.8668C254.332 98.8009 254.09 98.8047 253.865 98.8777C253.64 98.9507 253.443 99.0896 253.299 99.2761C252.86 99.9763 252.658 100.797 252.72 101.62C252.783 102.607 253.2 103.539 253.896 104.244C254.605 105.102 255.465 105.824 256.435 106.374C257.185 106.79 257.961 107.156 258.759 107.472C259.589 107.788 260.625 108.123 261.755 108.458C262.884 108.793 263.724 109.062 264.172 109.22C265.597 109.575 266.862 110.393 267.766 111.546C268.671 112.699 269.163 114.12 269.165 115.583C269.417 120.021 269.025 122.756 267.859 123.956C266.692 125.156 263.715 125.658 259.039 125.5C256.92 125.425 253.868 125.323 249.92 125.146C245.972 124.97 243.387 124.802 242.117 124.737C239.943 124.625 238.468 124.132 237.768 123.156C237.068 122.179 236.75 120.142 236.834 117.109C237.161 105.686 237.88 94.1597 238.477 82.6898C239.028 72.1873 239.588 61.6661 240.073 51.1915C240.269 47.6473 240.801 45.5821 241.613 45.1356Z" fill="#F18323"/>
<path d="M28.6255 174.385C31.8608 177.612 34.2932 181.55 35.7282 185.882C37.5003 190.719 38.5384 195.792 38.8082 200.934C39.114 205.588 38.5571 210.258 37.1656 214.711C35.8216 218.785 33.7589 221.288 31.0242 222.032C28.4669 222.73 24.8455 221.678 20.2815 218.553C15.3236 214.994 10.9205 210.724 7.21476 205.883C5.04765 203.02 3.32937 199.846 2.11873 196.469C0.885725 193.51 0.166142 190.365 -0.00927734 187.166C0.164946 170.031 0.348502 152.914 0.541392 135.816C0.522494 133.849 1.22629 131.944 2.52007 130.458C3.09889 129.759 3.82592 129.196 4.64893 128.81C5.47194 128.424 6.37051 128.224 7.28009 128.226H7.48543C12.9974 129.166 18.3647 130.811 23.4548 133.119C26.0308 134.319 28.0375 136.607 29.4095 140.123C30.8413 144.111 31.4754 148.34 31.2762 152.57C31.2749 155.259 30.8465 157.931 30.0069 160.487C29.4861 162.199 28.6748 163.81 27.6082 165.249C26.8828 166.088 26.2185 166.977 25.6202 167.91C25.3654 168.301 25.2176 168.751 25.1914 169.216C25.1652 169.681 25.2615 170.145 25.4708 170.561C26.2909 172.009 27.3585 173.303 28.6255 174.385ZM13.6175 199.418C15.4841 201.148 16.9775 201.604 18.0975 200.608C19.2175 199.613 19.8242 197.445 19.8428 194.264C19.8599 191 19.2615 187.763 18.0788 184.72C16.9121 181.706 15.4748 179.743 13.8415 178.868C13.414 178.627 12.951 178.454 12.4694 178.357C12.1338 178.293 11.7936 178.256 11.4521 178.245C11.1721 178.245 10.9388 178.422 10.7614 178.794C10.6338 179.061 10.4872 179.319 10.3228 179.566C10.151 179.975 10.0652 180.415 10.0708 180.859C10.0148 181.575 9.98677 182.031 9.98677 182.208C9.98677 182.385 9.98677 182.943 9.98677 183.836C9.98677 184.729 9.98677 185.222 9.98677 185.296C9.84721 188.306 10.035 191.322 10.5468 194.292C11.0332 196.268 12.1028 198.053 13.6175 199.418V199.418ZM13.0108 142.049C12.1521 141.863 11.5734 142.365 11.3961 143.454C11.2674 144.775 11.2674 146.105 11.3961 147.426C11.6388 152.3 12.3761 155.454 14.2708 156.003C16.5761 156.663 17.7241 154.794 17.7801 150.533C17.8527 148.597 17.4252 146.675 16.5388 144.951C16.2016 144.238 15.7105 143.609 15.1006 143.107C14.4907 142.605 13.7771 142.244 13.0108 142.049V142.049Z" fill="#F18323"/>
<path d="M44.4547 232.888C43.6856 231.4 43.0605 229.843 42.5881 228.237C42.0526 226.527 41.7021 224.765 41.5427 222.981C39.8721 199.008 40.6654 176.654 45.7801 153.212C47.3668 146.657 50.1512 141.916 54.1335 138.988C59.6403 135.03 66.0611 132.521 72.8002 131.695C76.0207 131.306 79.2629 131.123 82.5069 131.146C86.6789 131.146 89.4976 131.044 90.907 130.97C93.8003 130.812 96.0683 132.942 97.711 137.481C99.5351 142.885 100.551 148.527 100.726 154.226C101.192 163.305 101.37 172.524 101.174 181.612C100.819 197.706 100.371 213.892 99.4003 229.985C98.9243 237.883 97.459 244.414 95.0137 249.39C92.5683 254.367 89.591 256.832 86.3243 256.563C82.5256 256.256 75.8896 254.525 66.8268 250.47C57.7641 246.414 52.5841 242.944 50.9601 241.548C48.2943 239.068 46.0917 236.136 44.4547 232.888V232.888ZM76.0016 210.004C79.9682 210.385 82.4136 206.915 83.0109 200.041C83.7949 190.841 83.8416 181.296 83.9443 171.957C83.9443 167.305 82.7496 164.394 80.5376 163.77C77.1441 162.732 73.6646 161.997 70.1402 161.575C65.0628 161.324 61.2548 164.44 58.9401 170.496C56.2615 177.426 55.4681 186.05 56.5788 197.213C56.713 198.496 57.0435 199.751 57.5588 200.934C57.9158 201.963 58.4741 202.912 59.2015 203.725C60.7135 205.157 63.1588 207.399 65.7348 208.376C69.0037 209.634 72.5024 210.188 76.0016 210.004V210.004Z" fill="#F18323"/>
<path d="M109.667 264.126C108.558 263.804 107.54 263.226 106.697 262.439C105.854 261.652 105.208 260.678 104.814 259.595C103.881 257.316 103.47 253.344 103.498 247.679C103.685 213.154 104.017 178.611 104.497 144.049C104.562 139.398 105.01 136.133 105.841 134.17C106.671 132.207 107.969 131.212 109.686 131.109C110.843 131.044 112.486 130.979 114.651 130.96C116.817 130.942 118.207 130.96 118.842 130.96C120.102 130.96 121.119 131.695 121.745 133.481C122.5 136.206 122.849 139.027 122.781 141.854C122.93 155.249 122.958 168.831 123.089 182.375C123.201 194.041 123.322 205.715 123.453 217.399C123.515 223.191 123.91 227.068 124.638 229.027C124.93 229.94 125.508 230.736 126.288 231.297C127.067 231.858 128.007 232.155 128.969 232.144C132.486 232.166 135.995 231.823 139.441 231.12C140.17 230.952 140.935 231.063 141.586 231.432C142.236 231.801 142.723 232.4 142.95 233.111C143.659 234.739 144.033 237.762 144.191 242.069C144.191 243.111 144.285 244.786 144.285 247.009C144.285 255.791 143.771 261.372 142.95 263.586C142.129 265.8 140.047 266.981 136.706 266.981C132.533 267.009 128.361 266.814 124.209 266.395V266.2C119.323 265.813 114.466 265.12 109.667 264.126V264.126Z" fill="#F18323"/>
<path d="M149.063 139.9C149.997 138.226 151.863 137.444 154.794 137.528C162.755 137.667 166.731 137.714 174.683 137.77C177.203 137.826 178.961 138.697 179.957 140.384C180.952 142.071 181.593 145.202 181.879 149.779C181.879 150.97 181.879 151.556 181.954 152.738C182.047 154.821 182.103 156.514 182.131 157.835C182.159 159.156 182.131 160.542 182.131 162.031C182.131 163.519 182.131 164.645 182.029 165.417C181.959 166.288 181.825 167.152 181.627 168.003C181.485 168.728 181.276 169.438 181.002 170.124C180.742 170.67 180.406 171.178 180.003 171.631C179.64 172.089 179.19 172.471 178.678 172.756C178.258 172.961 177.651 173.24 176.877 173.594C176.149 173.924 175.393 174.189 174.618 174.384C173.881 174.561 172.882 174.729 171.743 174.97C170.607 175.175 169.506 175.545 168.477 176.068C165.005 178.478 164.314 182.692 166.461 188.608C166.921 190.388 167.96 191.023 169.578 190.515C170.311 190.252 171.115 190.269 171.836 190.563C172.556 190.856 173.142 191.406 173.479 192.106C176.186 198.738 175.906 205.297 172.546 212.078C171.826 213.218 170.847 214.173 169.69 214.869C168.926 215.345 168.1 215.715 167.235 215.967C166.657 216.097 166.162 216.636 165.761 217.594C165.299 219.045 165.112 220.569 165.21 222.088C165.254 223.522 165.803 224.895 166.759 225.967C167.567 227.003 168.66 227.782 169.905 228.209C170.812 228.502 171.753 228.683 172.705 228.748C173.911 228.799 175.12 228.746 176.317 228.59C177.717 228.432 178.697 228.339 179.229 228.339C183.055 227.985 185.118 231.13 185.491 237.958C186.014 247.325 185.687 253.502 184.381 256.432C183.074 259.363 179.602 261.502 174.114 262.516C171.622 262.972 167.991 263.595 163.278 264.079C158.565 264.563 155.429 264.674 153.945 264.74C151.35 264.86 149.539 264.219 148.662 262.786C147.785 261.353 147.29 258.256 147.234 253.549C147.019 235.781 147.281 217.883 147.393 200.05C147.486 183.612 147.607 167.138 147.617 150.747C147.663 145.184 148.139 141.575 149.063 139.9Z" fill="#F18323"/>
<path d="M206.436 251.567C206.019 251.813 205.578 252.016 205.12 252.172C204.767 252.306 204.405 252.415 204.037 252.497C203.775 252.5 203.515 252.453 203.272 252.358C203.142 252.333 203.02 252.281 202.912 252.206C202.804 252.131 202.714 252.033 202.646 251.921C202.562 251.744 202.432 251.381 202.245 250.823C202.073 250.331 201.972 249.817 201.946 249.297C201.946 248.826 201.9 248.054 201.806 246.981C201.732 245.902 201.685 244.944 201.685 244.097C201.685 243.251 201.685 241.995 201.61 240.376C201.218 223.846 201.06 207.045 200.938 190.496C200.938 186.961 200.64 184.599 200.089 183.454C199.785 182.871 199.314 182.391 198.736 182.074C198.157 181.758 197.498 181.62 196.841 181.678C194.47 181.389 193.285 181.231 190.914 180.887C190.318 181.002 189.701 180.915 189.159 180.64C188.618 180.366 188.185 179.919 187.928 179.371C187.405 178.254 187.078 176.05 186.994 172.812C186.761 161.435 186.686 149.937 186.565 138.523C186.565 135.063 186.817 132.644 187.433 131.295C187.681 130.669 188.12 130.136 188.687 129.771C189.255 129.406 189.922 129.226 190.597 129.258L212.997 129.184C215.262 129.072 218.162 128.917 221.696 128.718C225.214 128.523 227.669 128.337 228.92 128.3C229.496 128.229 230.08 128.329 230.598 128.589C231.117 128.849 231.546 129.257 231.832 129.76C232.327 130.691 232.616 132.635 232.765 135.444C233.083 143.416 233.54 150.635 233.997 156.905C234.249 160.393 234.165 162.784 233.717 164.087C233.426 164.808 232.986 165.46 232.424 166.001C231.863 166.541 231.194 166.957 230.46 167.221L222.517 171.752C221.879 171.978 221.299 172.34 220.815 172.812C220.331 173.284 219.957 173.856 219.717 174.487C219.218 176.648 219.045 178.87 219.204 181.082C219.624 199.482 220.184 218.078 220.529 236.469C220.639 238.454 220.418 240.444 219.876 242.358C219.406 243.723 218.526 244.912 217.356 245.762C216.945 246.069 213.501 247.734 208.181 250.581C207.35 250.962 206.762 251.362 206.436 251.567Z" fill="#F18323"/>
<path d="M265.385 138.281C267.252 138.067 268.475 138.281 269.165 138.923C269.856 139.565 270.379 141.072 270.761 143.407C271.22 145.902 271.504 148.426 271.611 150.961C272.544 164.059 273.263 177.157 273.953 190.264C274.028 191.436 274 192.729 273.953 194.096C273.948 195.792 273.654 197.475 273.085 199.073C272.407 200.597 271.458 201.987 270.285 203.176C269.837 203.65 269.193 204.32 268.344 205.129C267.495 205.938 266.86 206.562 266.477 206.99C264.704 208.776 263.5 208.45 263.127 206.059C262.539 202.338 260.709 201.799 257.937 204.515C257.218 205.222 256.071 206.218 254.605 207.399C252.496 209.073 251.198 212.134 250.76 216.59C250.657 217.52 250.526 218.404 250.377 219.139C250.236 219.829 249.997 220.496 249.668 221.12C249.408 221.616 249.122 222.097 248.809 222.562C248.489 223.003 248.109 223.397 247.68 223.734C247.176 224.143 246.746 224.46 246.429 224.664C246.112 224.869 245.589 225.213 244.88 225.595C244.17 225.976 243.638 226.329 243.284 226.525C242.999 226.702 242.667 226.786 242.333 226.766C241.998 226.746 241.678 226.623 241.417 226.413C241.113 226.136 240.88 225.791 240.737 225.405C240.594 225.02 240.546 224.607 240.596 224.199C240.596 206.924 240.652 189.65 240.764 172.384C240.764 170.524 240.801 168.496 240.876 166.301C240.95 164.105 240.997 161.727 241.016 159.166C241.072 156.579 241.118 154.514 241.156 153.007C241.258 149.054 241.706 146.263 242.509 144.635C242.964 143.806 243.597 143.089 244.364 142.534C245.131 141.979 246.011 141.6 246.942 141.426C249.817 140.7 253.429 139.928 257.732 139.091C260.812 138.821 262.333 138.607 265.385 138.281ZM260.401 180.766C260.327 180.18 260.159 178.654 259.832 176.236C259.505 173.817 259.309 171.854 259.104 170.533C258.879 168.956 258.459 167.412 257.853 165.938C257.461 165.007 257.041 164.57 256.574 164.71C256.108 164.849 255.753 165.584 255.52 166.952C254.381 175.24 253.774 182.245 253.513 187.417C253.41 189.399 253.7 190.72 254.446 191.268C255.193 191.817 256.173 191.622 257.424 190.738C259.225 189.482 260.224 187.268 260.504 184.18C260.587 183.041 260.553 181.897 260.401 180.766V180.766Z" fill="#F18323"/>
<path d="M142.147 138.3C141.947 137.938 141.674 137.621 141.345 137.37C141.207 137.254 141.043 137.174 140.868 137.137C140.692 137.1 140.509 137.106 140.337 137.156C139.982 137.267 139.702 137.677 139.487 138.384C138.682 141.028 137.703 143.616 136.557 146.133C135.917 147.564 135.112 148.916 134.158 150.161C133.723 150.788 133.139 151.299 132.459 151.649C132.03 151.789 131.778 151.789 131.713 151.649C130.649 151.51 129.771 150.496 129.099 148.626C128.304 146.206 127.75 143.713 127.447 141.184C127.024 138.083 126.713 134.564 126.514 130.626C126.346 126.663 126.234 122.523 126.206 118.207C126.178 113.89 126.206 109.518 126.253 105.09C126.299 100.662 126.411 96.4947 126.514 92.5691C126.617 88.6434 126.682 85.1271 126.719 81.9549C126.757 78.7828 126.719 76.3083 126.673 74.5129C126.62 74.2163 126.452 73.9522 126.206 73.778C125.943 73.5146 125.624 73.3142 125.273 73.192C124.966 73.0896 124.631 73.1096 124.339 73.2478C124.022 73.3873 123.835 73.778 123.77 74.4106L122.538 118.932C122.681 119.367 122.738 119.825 122.706 120.281V120.43C122.641 121.36 122.799 122.356 122.706 123.332C122.657 124.039 122.544 124.739 122.37 125.425C122.155 126.588 121.922 127.928 121.651 129.453C121.381 130.979 121.082 132.616 120.802 134.17C120.522 135.723 120.27 137.109 120.055 138.309C119.841 139.509 119.691 140.263 119.626 140.542C117.56 145.212 115.04 148.291 112.066 149.779C109.104 151.258 105.741 151.741 102.48 151.156C98.7844 150.666 96.7964 148.403 96.5164 144.365C96.4065 142.061 96.7228 139.756 97.4498 137.565C98.2086 135.139 99.2816 132.822 100.642 130.672C101.987 128.531 103.599 126.568 105.439 124.83C107.013 123.276 108.931 122.113 111.039 121.435H111.095C110.261 120.829 109.641 119.976 109.322 118.997C109.198 118.798 109.089 118.589 108.995 118.374C106.885 119.278 104.947 120.537 103.264 122.095C101.092 124.064 99.1927 126.313 97.6177 128.784C96.0058 131.285 94.717 133.979 93.7817 136.802C92.8965 139.301 92.5344 141.954 92.7177 144.598C92.8728 147.143 93.8224 149.576 95.4337 151.556C97.0094 153.491 99.2859 154.731 101.771 155.007C104.474 155.44 107.24 155.259 109.863 154.477C112.24 153.749 114.457 152.578 116.397 151.026C118.214 149.57 119.765 147.81 120.979 145.826C122.081 144.048 122.855 142.089 123.266 140.04C123.614 141.9 124.028 143.668 124.507 145.342C124.931 146.897 125.503 148.408 126.215 149.854C126.788 151.036 127.534 152.127 128.427 153.091C129.148 153.887 130.096 154.445 131.143 154.691C135.262 155.541 139.027 150.409 142.437 139.295C142.463 139.119 142.451 138.938 142.401 138.766C142.351 138.595 142.264 138.436 142.147 138.3Z" fill="#FBD6C1"/>
<path d="M166.134 134.635C165.994 135.666 165.794 136.687 165.537 137.695C166.278 137.575 167.036 137.601 167.767 137.77C167.991 137.77 168.225 137.77 168.458 137.816C168.458 137.584 168.542 137.36 168.589 137.128C168.961 134.902 169.154 132.65 169.167 130.393C170.801 129.611 172.527 128.681 174.338 127.602C176.243 126.433 178.042 125.101 179.714 123.621C179.885 123.486 180.026 123.317 180.127 123.125C180.229 122.933 180.288 122.721 180.302 122.504C180.344 122.101 180.27 121.694 180.087 121.332C180 121.177 179.878 121.044 179.731 120.944C179.584 120.844 179.415 120.779 179.238 120.755C178.99 120.738 178.741 120.777 178.51 120.868C178.279 120.96 178.071 121.103 177.903 121.286C176.394 122.607 174.774 123.796 173.059 124.839C171.466 125.801 169.958 126.666 168.533 127.435C167.319 123.267 164.949 120.365 161.393 118.737C160.215 118.242 158.929 118.059 157.659 118.207C156.431 118.341 155.23 118.654 154.094 119.137C153.113 119.536 152.175 120.031 151.294 120.616C150.753 120.925 150.282 121.343 149.913 121.844C149.12 122.319 148.403 122.908 147.785 123.593C146.948 124.463 146.18 125.396 145.489 126.383C144.751 127.444 144.033 128.56 143.361 129.732C142.733 130.806 142.181 131.922 141.709 133.072C139.842 137.525 139.434 141.525 140.486 145.072C141.537 148.62 143.902 151.429 147.579 153.5C147.592 152.484 147.686 151.47 147.859 150.468C146.342 149.656 145.108 148.404 144.322 146.877C143.356 144.937 143.004 142.75 143.314 140.607C143.653 137.943 144.406 135.348 145.545 132.914C146.503 130.806 147.607 128.767 148.849 126.811C148.984 127.505 149.307 128.148 149.782 128.672C150.338 129.368 150.964 130.007 151.649 130.579C152.355 131.184 153.122 131.717 153.935 132.17C154.675 132.616 155.486 132.931 156.334 133.1C159.732 133.617 163.209 133.139 166.339 131.723C166.375 132.698 166.306 133.674 166.134 134.635V134.635ZM160.861 130.123C159.471 130.37 158.052 130.408 156.651 130.235C155.551 130.11 154.495 129.728 153.571 129.118C152.786 128.601 152.231 127.801 152.022 126.886C151.892 126.401 151.805 125.906 151.761 125.407C151.772 124.776 151.935 124.157 152.237 123.602C152.311 123.528 152.629 123.276 153.17 122.858C153.816 122.38 154.51 121.972 155.242 121.639C156.075 121.231 156.951 120.919 157.855 120.709C158.749 120.492 159.689 120.571 160.534 120.932C162.092 121.581 163.426 122.671 164.37 124.067C165.295 125.441 165.777 127.064 165.751 128.718C164.192 129.377 162.56 129.849 160.889 130.123H160.861Z" fill="#FBD6C1"/>
</g>
<defs>
<clipPath id="clip0">
<rect width="274" height="267" fill="white"/>
</clipPath>
</defs>
</svg>
